Running SS (AS)05b_kinetics.mot																		
nRows=76																		
nColumns=19																		
																		
name Running SS (AS)05b_kinetics.mot																		
datacolumns 19																		
datarows 76																		
range 0 0.069444444																		
endheader																		
time	1_ground_force_vx	1_ground_force_vy	1_ground_force_vz	1_ground_force_px	1_ground_force_py	1_ground_force_pz	2_ground_force_vx	2_ground_force_vy	2_ground_force_vz	2_ground_force_px	2_ground_force_py	2_ground_force_pz	1_ground_torque_x	1_ground_torque_y	1_ground_torque_z	2_ground_torque_x	2_ground_torque_y	2_ground_torque_z
0	0	0	0	0	0	0	0	0	0	0	0	0	0	0	0	0	0	0
0.000925926	0	0	0	0	0	0	0	0	0	0	0	0	0	0	0	0	0	0
0.001851852	0	0	0	0	0	0	0	0	0	0	0	0	0	0	0	0	0	0
0.002777778	0	0	0	0	0	0	0	0	0	0	0	0	0	0	0	0	0	0
0.003703704	0	0	0	0	0	0	0	0	0	0	0	0	0	0	0	0	0	0
0.00462963	0	0	0	0	0	0	0	0	0	0	0	0	0	0	0	0	0	0
0.005555556	0	0	0	0	0	0	0	0	0	0	0	0	0	0	0	0	0	0
0.006481482	0	0	0	0	0	0	0	0	0	0	0	0	0	0	0	0	0	0
0.007407407	0	0	0	0	0	0	0	0	0	0	0	0	0	0	0	0	0	0
0.008333333	0	0	0	0	0	0	0	0	0	0	0	0	0	0	0	0	0	0
0.009259259	0	0	0	0	0	0	0	0	0	0	0	0	0	0	0	0	0	0
0.010185185	0	0	0	0	0	0	0	0	0	0	0	0	0	0	0	0	0	0
0.011111111	0	0	0	0	0	0	0	0	0	0	0	0	0	0	0	0	0	0
0.012037037	0	0	0	0	0	0	0	0	0	0	0	0	0	0	0	0	0	0
0.012962963	0	0	0	0	0	0	0	0	0	0	0	0	0	0	0	0	0	0
0.013888889	0	0	0	0	0	0	0	0	0	0	0	0	0	0	0	0	0	0
0.014814815	0	0	0	0	0	0	0	0	0	0	0	0	0	0	0	0	0	0
0.015740741	0	0	0	0	0	0	0	0	0	0	0	0	0	0	0	0	0	0
0.016666667	0	0	0	0	0	0	0	0	0	0	0	0	0	0	0	0	0	0
0.017592593	0	0	0	0	0	0	0	0	0	0	0	0	0	0	0	0	0	0
0.018518519	0	0	0	0	0	0	0	0	0	0	0	0	0	0	0	0	0	0
0.019444444	0	0	0	0	0	0	0	0	0	0	0	0	0	0	0	0	0	0
0.02037037	0	0	0	0	0	0	0	0	0	0	0	0	0	0	0	0	0	0
0.021296296	0	0	0	0	0	0	0	0	0	0	0	0	0	0	0	0	0	0
0.022222222	0	0	0	0	0	0	0	0	0	0	0	0	0	0	0	0	0	0
0.023148148	0	0	0	0	0	0	0	0	0	0	0	0	0	0	0	0	0	0
0.024074074	0	0	0	0	0	0	0	0	0	0	0	0	0	0	0	0	0	0
0.025	0	0	0	0	0	0	0	0	0	0	0	0	0	0	0	0	0	0
0.025925926	0	0	0	0	0	0	0	0	0	0	0	0	0	0	0	0	0	0
0.026851852	0	0	0	0	0	0	0	0	0	0	0	0	0	0	0	0	0	0
0.027777778	0	0	0	0	0	0	0	0	0	0	0	0	0	0	0	0	0	0
0.028703704	0	0	0	0	0	0	0	0	0	0	0	0	0	0	0	0	0	0
0.02962963	0	0	0	0	0	0	0	0	0	0	0	0	0	0	0	0	0	0
0.030555556	0	0	0	0	0	0	0	0	0	0	0	0	0	0	0	0	0	0
0.031481482	0	0	0	0	0	0	0	0	0	0	0	0	0	0	0	0	0	0
0.032407407	0	0	0	0	0	0	0	0	0	0	0	0	0	0	0	0	0	0
0.033333333	0	0	0	0	0	0	0	0	0	0	0	0	0	0	0	0	0	0
0.034259259	0	0	0	0	0	0	0	0	0	0	0	0	0	0	0	0	0	0
0.035185185	0	0	0	0	0	0	0	0	0	0	0	0	0	0	0	0	0	0
0.036111111	0	0	0	0	0	0	0	0	0	0	0	0	0	0	0	0	0	0
0.037037037	0	0	0	0	0	0	0	0	0	0	0	0	0	0	0	0	0	0
0.037962963	0	0	0	0	0	0	0	0	0	0	0	0	0	0	0	0	0	0
0.038888889	0	0	0	0	0	0	0	0	0	0	0	0	0	0	0	0	0	0
0.039814815	0	0	0	0	0	0	0	0	0	0	0	0	0	0	0	0	0	0
0.040740741	0	0	0	0	0	0	0	0	0	0	0	0	0	0	0	0	0	0
0.041666667	0	0	0	0	0	0	0	0	0	0	0	0	0	0	0	0	0	0
0.042592593	0	0	0	0	0	0	0	0	0	0	0	0	0	0	0	0	0	0
0.043518519	0	0	0	0	0	0	0	0	0	0	0	0	0	0	0	0	0	0
0.044444444	0	0	0	0	0	0	0	0	0	0	0	0	0	0	0	0	0	0
0.04537037	0	0	0	0	0	0	0	0	0	0	0	0	0	0	0	0	0	0
0.046296296	0	0	0	0	0	0	0	0	0	0	0	0	0	0	0	0	0	0
0.047222222	0	0	0	0	0	0	0	0	0	0	0	0	0	0	0	0	0	0
0.048148148	0	0	0	0	0	0	0	0	0	0	0	0	0	0	0	0	0	0
0.049074074	0	0	0	0	0	0	0	0	0	0	0	0	0	0	0	0	0	0
0.05	0	0	0	0	0	0	0	0	0	0	0	0	0	0	0	0	0	0
0.050925926	-28.43053097	14.53037954	-3.746643742	0.015243519	0	0.283609547	0	0	0	0	0	0	0	0.683024676	0	0	0	0
0.051851852	-31.19317946	29.76559698	-3.312751083	0.117208715	0	0.278839637	0	0	0	0	0	0	0	0.103250478	0	0	0	0
0.052777778	-33.94021051	46.71380247	-2.792843428	0.153449277	0	0.277155409	0	0	0	0	0	0	0	-0.123737011	0	0	0	0
0.053703704	-36.65866964	65.40571923	-2.186478505	0.172320821	0	0.276290071	0	0	0	0	0	0	0	-0.254188222	0	0	0	0
0.05462963	-39.33583627	85.85828109	-1.494229311	0.184075816	0	0.275762699	0	0	0	0	0	0	0	-0.341951911	0	0	0	0
0.055555556	-41.95941034	108.0736514	-0.717748239	0.192218729	0	0.275408686	0	0	0	0	0	0	0	-0.405042096	0	0	0	0
0.056481482	-44.51770139	132.0383779	0.140180454	0.19827415	0	0.275156269	0	0	0	0	0	0	0	-0.450972773	0	0	0	0
0.057407407	-46.9998167	157.7227034	1.075601828	0.203012511	0	0.274969072	0	0	0	0	0	0	0	-0.483275234	0	0	0	0
0.058333333	-49.39584454	185.0800526	2.083366964	0.206865504	0	0.274826635	0	0	0	0	0	0	0	-0.503711194	0	0	0	0
0.059259259	-51.69702881	214.0467117	3.157126887	0.210094147	0	0.274716529	0	0	0	0	0	0	0	-0.513171917	0	0	0	0
0.060185185	-53.89593127	244.5417177	4.289345145	0.2128658	0	0.274630747	0	0	0	0	0	0	0	-0.512093681	0	0	0	0
0.061111111	-55.9865779	276.4669709	5.471330162	0.215292934	0	0.274563882	0	0	0	0	0	0	0	-0.50066978	0	0	0	0
0.062037037	-57.96458613	309.7075818	6.693288095	0.217454108	0	0.274512142	0	0	0	0	0	0	0	-0.478967751	0	0	0	0
0.062962963	-59.82727013	344.1324605	7.944396534	0.219406017	0	0.274472784	0	0	0	0	0	0	0	-0.446998695	0	0	0	0
0.063888889	-61.57372201	379.5951526	9.212898889	0.221190741	0	0.27444377	0	0	0	0	0	0	0	-0.404760613	0	0	0	0
0.064814815	-63.20486698	415.9349226	10.48621886	0.2228403	0	0.274423558	0	0	0	0	0	0	0	-0.352266752	0	0	0	0
0.065740741	-64.72349152	452.97808	11.75109379	0.224379616	0	0.274410958	0	0	0	0	0	0	0	-0.28956473	0	0	0	0
0.066666667	-66.13424394	490.5395402	12.99372532	0.225828484	0	0.274405039	0	0	0	0	0	0	0	-0.216749671	0	0	0	0
0.067592593	-67.44360756	528.4246065	14.19994489	0.227202942	0	0.274405069	0	0	0	0	0	0	0	-0.133973171	0	0	0	0
0.068518519	-68.6598473	566.430954	15.35539173	0.228516227	0	0.274410467	0	0	0	0	0	0	0	-0.041449202	0	0	0	0
0.069444444	-69.79293114	604.3507939	16.4456997	0.229779463	0	0.274420771	0	0	0	0	0	0	0	0.060542352	0	0	0	0
